<svg class="lds-spinner" width="44px"  height="44px"  xmlns="http://www.w3.org/2000/svg" xmlns:xlink="http://www.w3.org/1999/xlink" viewBox="0 0 100 100" preserveAspectRatio="xMidYMid" style="background: rgb(255, 255, 255);"><g transform="rotate(0 50 50)">
  <rect x="46" y="13" rx="13.8" ry="3.9" width="8" height="18" fill="#32a0da">
    <animate attributeName="opacity" values="1;0" times="0;1" dur="1.1s" begin="-0.9625000000000001s" repeatCount="indefinite"></animate>
  </rect>
</g><g transform="rotate(45 50 50)">
  <rect x="46" y="13" rx="13.8" ry="3.9" width="8" height="18" fill="#32a0da">
    <animate attributeName="opacity" values="1;0" times="0;1" dur="1.1s" begin="-0.8250000000000001s" repeatCount="indefinite"></animate>
  </rect>
</g><g transform="rotate(90 50 50)">
  <rect x="46" y="13" rx="13.8" ry="3.9" width="8" height="18" fill="#32a0da">
    <animate attributeName="opacity" values="1;0" times="0;1" dur="1.1s" begin="-0.6875s" repeatCount="indefinite"></animate>
  </rect>
</g><g transform="rotate(135 50 50)">
  <rect x="46" y="13" rx="13.8" ry="3.9" width="8" height="18" fill="#32a0da">
    <animate attributeName="opacity" values="1;0" times="0;1" dur="1.1s" begin="-0.55s" repeatCount="indefinite"></animate>
  </rect>
</g><g transform="rotate(180 50 50)">
  <rect x="46" y="13" rx="13.8" ry="3.9" width="8" height="18" fill="#32a0da">
    <animate attributeName="opacity" values="1;0" times="0;1" dur="1.1s" begin="-0.41250000000000003s" repeatCount="indefinite"></animate>
  </rect>
</g><g transform="rotate(225 50 50)">
  <rect x="46" y="13" rx="13.8" ry="3.9" width="8" height="18" fill="#32a0da">
    <animate attributeName="opacity" values="1;0" times="0;1" dur="1.1s" begin="-0.275s" repeatCount="indefinite"></animate>
  </rect>
</g><g transform="rotate(270 50 50)">
  <rect x="46" y="13" rx="13.8" ry="3.9" width="8" height="18" fill="#32a0da">
    <animate attributeName="opacity" values="1;0" times="0;1" dur="1.1s" begin="-0.1375s" repeatCount="indefinite"></animate>
  </rect>
</g><g transform="rotate(315 50 50)">
  <rect x="46" y="13" rx="13.8" ry="3.9" width="8" height="18" fill="#32a0da">
    <animate attributeName="opacity" values="1;0" times="0;1" dur="1.1s" begin="0s" repeatCount="indefinite"></animate>
  </rect>
</g></svg>